<?xml version="1.0" encoding="UTF-8" standalone="no"?>
<!-- Created with Inkscape (http://www.inkscape.org/) -->

<svg
   xmlns:dc="http://purl.org/dc/elements/1.1/"
   xmlns:cc="http://creativecommons.org/ns#"
   xmlns:rdf="http://www.w3.org/1999/02/22-rdf-syntax-ns#"
   xmlns:svg="http://www.w3.org/2000/svg"
   xmlns="http://www.w3.org/2000/svg"
   xmlns:sodipodi="http://sodipodi.sourceforge.net/DTD/sodipodi-0.dtd"
   xmlns:inkscape="http://www.inkscape.org/namespaces/inkscape"
   width="590.64453"
   height="173.28436"
   id="svg2"
   version="1.1"
   inkscape:version="0.48.1 "
   sodipodi:docname="a.svg"
   style="display:inline">
  <defs
     id="defs4" />
  <sodipodi:namedview
     id="base"
     pagecolor="#ffffff"
     bordercolor="#666666"
     borderopacity="1.0"
     inkscape:pageopacity="0.0"
     inkscape:pageshadow="2"
     inkscape:zoom="1.5"
     inkscape:cx="296.5"
     inkscape:cy="86.209806"
     inkscape:document-units="px"
     inkscape:current-layer="layer2"
     showgrid="true"
     fit-margin-top="0"
     fit-margin-left="0"
     fit-margin-right="0"
     fit-margin-bottom="0"
     inkscape:snap-page="false"
     inkscape:snap-bbox="true"
     inkscape:window-width="1024"
     inkscape:window-height="708"
     inkscape:window-x="-4"
     inkscape:window-y="-4"
     inkscape:window-maximized="1"
     inkscape:snap-global="true"
     showguides="true"
     inkscape:guide-bbox="true"
     inkscape:snap-nodes="false">
    <inkscape:grid
       type="xygrid"
       id="grid3003"
       empspacing="5"
       visible="true"
       enabled="true"
       snapvisiblegridlinesonly="true" />
  </sodipodi:namedview>
  <metadata
     id="metadata7">
    <rdf:RDF>
      <cc:Work
         rdf:about="">
        <dc:format>image/svg+xml</dc:format>
        <dc:type
           rdf:resource="http://purl.org/dc/dcmitype/StillImage" />
        <dc:title></dc:title>
      </cc:Work>
    </rdf:RDF>
  </metadata>
  <g
     inkscape:groupmode="layer"
     id="layer2"
     inkscape:label="ve"
     style="display:inline"
     transform="translate(-1.5,-2.4254486)">
    <path
       style="fill:#3a4489;fill-opacity:1;display:inline"
       d="M 235,174.90452 C 114.58984,169.45743 22.70667,141.61891 4.75014,105.14403 1.9,99.35457 1.5,97.5523 1.5,90.5 1.5,83.43484 1.89791,81.64968 4.77567,75.80411 17.10648,50.75669 57.87374,30.79581 125.74263,16.57507 141.01907,13.37415 174.55508,8.5254 195,6.5616 226.20394,3.56436 282,1.29593 282,3.02454 282,3.61613 275.9575,4 266.64522,4 220.4843,4 162.46035,13.6703 120,28.43996 90.0091,38.87217 70.05951,49.96382 57.22,63.34463 48.61129,72.31626 45.48476,79.18931 45.54946,89 c 0.0428,6.49679 0.48195,8.30257 3.28281,13.5 10.68547,19.82853 41.17302,38.61874 83.3461,51.36821 41.90563,12.66863 72.35396,17.36766 136.32163,21.03825 l 14,0.80335 -15,-0.007 c -8.25,-0.004 -22.875,-0.36306 -32.5,-0.79847 z"
       id="path3070"
       inkscape:connector-curvature="0" />
    <path
       style="fill:#3a4489;fill-opacity:1;display:inline"
       d="M 236,144.92741 C 181.96239,141.55824 137.67971,132.77263 110.40581,120.00974 87.71213,109.39018 78,99.09011 78,85.64223 78,55.3927 141.62003,31.76138 238.5,26.02536 c 21.64879,-1.28177 43.50433,-1.74997 43.50182,-0.93192 -0.001,0.32639 -6.86432,0.88255 -15.25182,1.23591 -44.5498,1.87686 -85.51051,11.02024 -114.76512,25.61823 -14.20959,7.09056 -24.35268,15.6787 -28.20866,23.88422 -4.78638,10.18543 0.26257,22.69478 13.16806,32.62532 25.73444,19.8022 74.26714,33.34381 130.55572,36.42771 l 15,0.82181 -17,7e-5 c -9.35,3e-5 -22.625,-0.35065 -29.5,-0.7793 z"
       id="path3068"
       inkscape:connector-curvature="0" />
    <path
       style="fill:#3a4489;fill-opacity:1;display:inline"
       d="m 249.5,117.34877 c -57.10508,-4.49731 -87.62037,-13.92129 -94.11921,-29.06665 -5.52833,-12.88359 7.93366,-24.83271 36.37546,-32.28757 19.48002,-5.10589 54.51156,-9.09251 77.74375,-8.8473 l 13,0.13721 -12,0.8449 c -34.77181,2.44823 -62.11739,12.83357 -70.22867,26.67153 -4.67206,7.97059 -1.92824,14.77495 9.14392,22.67588 14.65065,10.45449 39.09762,17.52019 68.58475,19.82247 2.475,0.19324 -2.025,0.35432 -10,0.35795 -7.975,0.004 -16.3,-0.13516 -18.5,-0.30842 z"
       id="path3066"
       inkscape:connector-curvature="0" />
    <g
       id="g3117"
       style="fill:#3a4489;fill-opacity:1">
      <text
         transform="scale(0.92011735,1.0868179)"
         sodipodi:linespacing="125%"
         id="text3072"
         y="95.692207"
         x="320.41357"
         style="font-size:12.85402775px;font-style:normal;font-variant:normal;font-weight:normal;font-stretch:normal;text-align:start;line-height:125%;letter-spacing:0px;word-spacing:0px;writing-mode:lr-tb;text-anchor:start;fill:#3a4489;fill-opacity:1;stroke:none;font-family:Calibri;-inkscape-font-specification:Calibri"
         xml:space="preserve"><tspan
           style="font-size:57.84312057px;font-style:normal;font-variant:normal;font-weight:bold;font-stretch:normal;fill:#3a4489;fill-opacity:1;font-family:Arial;-inkscape-font-specification:Arial Bold"
           y="95.692207"
           x="320.41357"
           id="tspan3074"
           sodipodi:role="line">W</tspan></text>
      <text
         transform="scale(0.97217755,1.0286187)"
         sodipodi:linespacing="125%"
         id="text3076"
         y="101.10647"
         x="373.38858"
         style="font-size:14.12204361px;font-style:normal;font-variant:normal;font-weight:normal;font-stretch:normal;text-align:start;line-height:125%;letter-spacing:0px;word-spacing:0px;writing-mode:lr-tb;text-anchor:start;fill:#3a4489;fill-opacity:1;stroke:none;font-family:Calibri;-inkscape-font-specification:Calibri"
         xml:space="preserve"><tspan
           style="font-size:63.54919815px;font-style:normal;font-variant:normal;font-weight:bold;font-stretch:normal;fill:#3a4489;fill-opacity:1;font-family:Arial;-inkscape-font-specification:Arial Bold"
           y="101.10647"
           x="373.38858"
           id="tspan3078"
           sodipodi:role="line">A</tspan></text>
      <text
         transform="scale(0.9858845,1.0143176)"
         sodipodi:linespacing="125%"
         id="text3080"
         y="102.53199"
         x="432.54468"
         style="font-size:14.03622723px;font-style:normal;font-variant:normal;font-weight:normal;font-stretch:normal;text-align:start;line-height:125%;letter-spacing:0px;word-spacing:0px;writing-mode:lr-tb;text-anchor:start;fill:#3a4489;fill-opacity:1;stroke:none;font-family:Calibri;-inkscape-font-specification:Calibri"
         xml:space="preserve"><tspan
           style="font-size:63.1630249px;font-style:normal;font-variant:normal;font-weight:bold;font-stretch:normal;fill:#3a4489;fill-opacity:1;font-family:Arial;-inkscape-font-specification:Arial Bold"
           y="102.53199"
           x="432.54468"
           id="tspan3082"
           sodipodi:role="line">B</tspan></text>
      <text
         transform="scale(0.97217755,1.0286187)"
         sodipodi:linespacing="125%"
         id="text3076-9"
         y="101.10647"
         x="502.99454"
         style="font-size:14.12204361px;font-style:normal;font-variant:normal;font-weight:normal;font-stretch:normal;text-align:start;line-height:125%;letter-spacing:0px;word-spacing:0px;writing-mode:lr-tb;text-anchor:start;fill:#3a4489;fill-opacity:1;stroke:none;display:inline;font-family:Calibri;-inkscape-font-specification:Calibri"
         xml:space="preserve"><tspan
           style="font-size:63.54919815px;font-style:normal;font-variant:normal;font-weight:bold;font-stretch:normal;fill:#3a4489;fill-opacity:1;font-family:Arial;-inkscape-font-specification:Arial Bold"
           y="101.10647"
           x="502.99454"
           id="tspan3078-3"
           sodipodi:role="line">A</tspan></text>
      <text
         transform="scale(0.94857054,1.0542179)"
         sodipodi:linespacing="125%"
         id="text3107"
         y="99.531586"
         x="580.53571"
         style="font-size:13.54292774px;font-style:normal;font-variant:normal;font-weight:normal;font-stretch:normal;text-align:start;line-height:125%;letter-spacing:0px;word-spacing:0px;writing-mode:lr-tb;text-anchor:start;fill:#3a4489;fill-opacity:1;stroke:none;font-family:Calibri;-inkscape-font-specification:Calibri"
         xml:space="preserve"><tspan
           style="font-size:60.94317245px;font-style:normal;font-variant:normal;font-weight:bold;font-stretch:normal;fill:#3a4489;fill-opacity:1;font-family:Arial;-inkscape-font-specification:Arial Bold"
           y="99.531586"
           x="580.53571"
           id="tspan3109"
           sodipodi:role="line">G</tspan></text>
    </g>
  </g>
</svg>
